<?xml version="1.0" encoding="UTF-8" standalone="no"?>
<svg
   width="204px"
   height="37px"
   viewBox="0 0 204 37"
   version="1.1"
   id="svg1"
   sodipodi:docname="mariage.net-white.svg"
   inkscape:version="1.4.2 (ebf0e940d0, 2025-05-08)"
   xmlns:inkscape="http://www.inkscape.org/namespaces/inkscape"
   xmlns:sodipodi="http://sodipodi.sourceforge.net/DTD/sodipodi-0.dtd"
   xmlns:xlink="http://www.w3.org/1999/xlink"
   xmlns="http://www.w3.org/2000/svg"
   xmlns:svg="http://www.w3.org/2000/svg">
  <sodipodi:namedview
     id="namedview1"
     pagecolor="#ffffff"
     bordercolor="#666666"
     borderopacity="1.0"
     inkscape:showpageshadow="2"
     inkscape:pageopacity="0.0"
     inkscape:pagecheckerboard="0"
     inkscape:deskcolor="#d1d1d1"
     inkscape:zoom="2.9306803"
     inkscape:cx="65.172581"
     inkscape:cy="35.998467"
     inkscape:window-width="1920"
     inkscape:window-height="974"
     inkscape:window-x="0"
     inkscape:window-y="39"
     inkscape:window-maximized="1"
     inkscape:current-layer="Page-1" />
  <!-- Generator: Sketch 48.1 (47250) - http://www.bohemiancoding.com/sketch -->
  <title
     id="title1">gen_logoHeader</title>
  <desc
     id="desc1">Created with Sketch.</desc>
  <defs
     id="defs1">
    <polygon
       id="path-1"
       points="1.74115964e-15 30.286174 1.74115964e-15 0.223087719 34.3096505 0.223087719 34.3096505 30.286174" />
  </defs>
  <g
     id="BRAND-HEADER"
     stroke="none"
     stroke-width="1"
     fill="none"
     fill-rule="evenodd">
    <g
       id="gen_logoHeader">
      <g
         id="Page-1">
        <path
           d="M160.795281,27.8774947 C159.799141,27.8774947 158.899632,27.0421684 158.899632,26.0460281 C158.899632,25.0498877 159.799141,24.2145614 160.795281,24.2145614 C161.823394,24.2145614 162.723141,25.0498877 162.723141,26.0460281 C162.723141,27.0421684 161.823394,27.8774947 160.795281,27.8774947"
           id="Fill-1"
           fill="#3A3A3A"
           style="fill:#dddddd;fill-opacity:1" />
        <path
           d="M177.010776,24.0774161 C177.010776,25.9162793 177.895731,26.0491775 179.025485,26.0654021 C180.76366,26.0904547 182.733513,24.5839565 182.87858,24.2363214 C182.946818,24.0726442 183.331913,23.9409389 183.506327,23.9729109 C184.149345,24.0912547 185.090131,24.9315916 185.340895,24.9315916 C185.398874,24.9315916 181.922524,27.8799284 177.961822,27.8799284 C173.564966,27.8799284 173.138594,25.8222723 173.138594,22.4559144 L173.138594,17.437753 C173.138594,15.5363775 172.515141,14.8506512 171.661681,14.8506512 C170.780067,14.8506512 169.626215,15.5399565 168.867239,16.4218091 C168.805681,16.4936267 168.773948,16.5862021 168.773948,16.6806863 L168.773948,27.1118863 C168.773948,27.5172618 168.413429,27.8994933 168.019506,27.8994933 L165.656685,27.8994933 C165.263001,27.8994933 164.902243,27.5172618 164.902243,27.1118863 L164.902243,13.7609811 C164.902243,13.355367 165.263001,13.0084477 165.656685,13.0084477 L168.019506,13.0084477 C168.413429,13.0084477 168.773948,13.355367 168.773948,13.7609811 L168.773948,14.8506512 C170.021092,13.6352407 171.169457,13.0120267 172.941513,13.0120267 C176.747843,13.0120267 177.010776,15.5363775 177.010776,18.49736 L177.010776,24.0774161 Z"
           id="Fill-3"
           fill="#3A3A3A"
           style="fill:#dddddd;fill-opacity:1" />
        <path
           d="M197.881432,14.8819074 C197.586288,18.2172477 197.487747,20.648546 197.487747,24.0774161 C197.487747,25.9162793 198.537333,26.0799565 199.883256,26.0799565 C200.932842,26.0799565 202.212674,25.7055986 203.229811,25.3314793 C203.754723,25.362974 203.951565,26.0100477 203.951565,26.3214161 C203.951565,27.3502442 200.145235,27.8799284 198.439032,27.8799284 C194.468786,27.8799284 193.713867,26.3214161 193.713867,21.6461179 C193.713867,19.4324196 193.943396,17.1571635 194.075102,14.8819074 L192.630877,14.8819074 C192.270119,14.7265811 192.094512,14.2856547 192.094512,13.9122512 C192.094512,13.5378933 192.302807,13.1642512 192.630877,13.0079705 L194.304632,13.0079705 L195.55106,9.61441263 C195.683004,9.20903719 195.944982,8.86593544 196.338905,8.86593544 L197.651186,8.86593544 C198.045347,8.86593544 198.406344,9.08472842 198.406344,9.45837053 C198.275116,10.8298232 198.143649,11.7927986 198.01266,13.0079705 L200.801853,13.0079705 C201.129684,13.1642512 201.413614,13.5378933 201.413614,13.9122512 C201.413614,14.2856547 201.195775,14.7265811 200.801853,14.8819074 L197.881432,14.8819074 Z"
           id="Fill-5"
           fill="#3A3A3A"
           style="fill:#dddddd;fill-opacity:1" />
        <path
           d="M184.484859,23.2693614 C186.619343,21.1346386 187.624312,18.6484632 187.624312,16.837993 C187.624312,15.6827088 187.134712,14.6863298 185.831736,14.6863298 C184.813168,14.6863298 183.466291,16.5900912 183.466291,19.0247298 C183.466291,20.4288702 183.827287,21.9585123 184.484859,23.2693614 M180.081799,20.1480421 C180.081799,15.9659228 182.742866,13.0008842 185.601968,13.0008842 C188.788185,13.0008842 190.006698,15.3823158 190.006698,16.7182175 C190.006698,19.433207 189.310473,21.475593 185.503427,24.7364912 C186.489069,25.9535719 188.742613,26.0814596 189.991427,26.0814596 C191.338543,26.0814596 192.685898,25.6128561 193.868382,25.0826947 C194.328634,25.0826947 194.591568,25.3947789 194.591568,25.7693754 C194.591568,26.4880281 190.621799,27.8883509 187.835947,27.8883509 C186.160761,27.8883509 184.451455,27.5137544 183.104578,26.5775018 C181.100129,25.1731228 180.081799,22.6764491 180.081799,20.1480421"
           id="Fill-7"
           fill="#3A3A3A"
           style="fill:#dddddd;fill-opacity:1" />
        <path
           d="M62.2859481,18.6554063 L62.2859481,24.2612309 C62.2859481,26.1089221 63.3088112,26.2699747 64.6929095,26.2294133 C66.1943972,26.1857502 66.980334,25.74888 67.882706,25.3998133 C68.4100042,25.4305923 68.8473516,26.2029291 68.8473516,26.5162063 C68.8473516,27.5495677 64.95632,28.0821151 63.2422428,28.0821151 C58.823913,28.0821151 58.3953937,26.0149151 58.3953937,22.6328098 L58.3953937,17.5903116 C58.3953937,15.7111256 58.131506,14.9908028 57.1095972,14.9908028 C56.2854849,14.9908028 55.3294288,15.7111256 54.5377656,16.6819747 L54.5377656,27.31288 C54.5377656,27.7201642 54.1753375,28.0334414 53.7465796,28.0334414 L51.4383972,28.0334414 C51.0101165,28.0334414 50.6474498,27.7201642 50.6474498,27.31288 L50.6474498,17.2145221 C50.6474498,15.5861011 50.1528393,14.9908028 49.4272674,14.9908028 C48.4385235,14.9908028 47.5807691,15.7426204 46.8225095,16.6819747 L46.8225095,27.31288 C46.8225095,27.7201642 46.4600814,28.0334414 46.0315621,28.0334414 L43.6902147,28.0334414 C43.2621726,28.0334414 42.8990288,27.7201642 42.8990288,27.31288 L42.9519972,13.8495958 C42.9519972,13.4423116 43.3149025,13.129273 43.7431832,13.129273 L46.0845305,13.129273 C46.5128112,13.129273 46.8754779,13.4423116 46.8754779,13.8495958 L46.8225095,14.9908028 C47.7785656,13.95768 48.9326568,13.1431116 50.7133025,13.1431116 C52.2956744,13.1431116 53.8453586,13.6444028 54.3070428,15.3043186 C55.3618779,14.0514484 56.5822989,13.1431116 58.42832,13.1431116 C62.0881516,13.1431116 62.2859481,15.3668309 62.2859481,18.6554063"
           id="Fill-9"
           fill="#3A3A3A"
           style="fill:#dddddd;fill-opacity:1" />
        <path
           d="M93.0045305,15.8365319 C92.9718428,16.0243074 92.7740463,16.1498091 92.5762498,16.1498091 C92.4772323,16.1498091 92.3782147,16.118553 92.3126007,16.0558021 C91.6860463,15.3979916 90.9275481,14.9596898 90.1363621,14.9596898 C89.3120112,14.9596898 88.4549726,15.4609811 87.5976954,16.6821179 L87.5976954,27.3130232 C87.5976954,27.7203074 87.2677165,28.033346 86.8391972,28.033346 L84.4651621,28.033346 C84.0698077,28.033346 83.7069025,27.7203074 83.7069025,27.3130232 L83.7069025,13.8812337 C83.7069025,13.4739495 84.0698077,13.1606723 84.4651621,13.1606723 L86.8391972,13.1606723 C87.5316042,13.1606723 87.5976954,13.6932196 87.5976954,14.2880407 L87.5976954,14.9596898 C88.5537516,13.7383144 90.0046568,13.0805039 91.5870288,13.0805039 C92.2135832,13.0805039 93.7959551,13.2685179 93.7959551,13.7383144 C93.7959551,13.7695705 93.7959551,13.8010653 93.7630288,13.8633389 L93.0045305,15.8365319 Z"
           id="Fill-11"
           fill="#3A3A3A"
           style="fill:#dddddd;fill-opacity:1" />
        <path
           d="M104.839537,25.4780253 C105.366835,25.5090428 105.56487,26.2028814 105.56487,26.5163972 C105.56487,27.5497586 101.740168,28.0820674 100.025614,28.0820674 C96.0033544,28.0820674 95.3107088,26.5163972 95.3107088,21.8184323 C95.3107088,19.4384323 95.4099649,16.2925375 95.7394667,13.8497867 C95.8055579,13.4112463 96.0362807,13.1292253 96.5306526,13.1292253 L98.7398175,13.1292253 C99.2015018,13.1292253 99.5312421,13.4112463 99.5312421,13.7870358 C99.1683368,17.4511621 99.0037053,20.534306 99.0037053,24.2926779 C99.0037053,26.1403691 100.124632,26.2293656 101.476519,26.2293656 C102.531593,26.2293656 103.817389,25.8535761 104.839537,25.4780253"
           id="Fill-13"
           fill="#3A3A3A"
           style="fill:#dddddd;fill-opacity:1" />
        <path
           d="M75.4052477,24.5429656 C74.6138232,25.4515411 73.3938793,26.2656323 72.2397881,26.2656323 C69.5694161,26.2656323 69.4043074,22.3197235 69.4043074,20.5655621 C69.4043074,18.8118779 69.7011214,14.6774779 72.4048968,14.6774779 C75.2406161,14.6774779 75.4052477,18.0600604 75.4052477,19.8142218 L75.4052477,24.5429656 Z M85.0987074,25.3997656 C84.0763214,25.7753165 82.7905249,26.24392 81.7025249,26.24392 C80.3508758,26.24392 79.2955635,26.1088744 79.2955635,24.2611832 L79.2955635,20.9788112 C79.3175144,18.7092814 79.2650232,14.4620253 79.2650232,14.4620253 C79.2387775,13.7813095 79.3838442,13.1979411 78.6112688,13.1953165 L75.9790723,13.186727 C75.5935004,13.1852954 75.4102582,13.3921586 75.3479846,13.6861095 C74.5155214,13.3379972 73.5518302,13.1318498 72.4378232,13.1433025 C67.6573039,13.1929305 65.5471565,16.4316393 65.5471565,20.5970568 C65.5471565,24.0106568 67.1953811,28.0820674 71.3495846,28.0820674 C72.9651214,28.0820674 74.5150442,27.2049867 75.7679144,25.8583481 C76.22936,27.5187411 78.1746372,28.0820674 80.2516196,28.0820674 C82.296153,28.0820674 84.1753389,27.6752604 85.6920968,26.9234428 C85.7911144,26.7981796 85.856967,26.6729165 85.856967,26.5163972 C85.856967,26.1718639 85.6260056,25.4307832 85.0987074,25.3997656 Z"
           id="Fill-15"
           fill="#3A3A3A"
           style="fill:#ddddda;fill-opacity:1" />
        <path
           d="M97.9717277,10.8381263 C96.971054,10.8381263 96.0672505,9.99874386 96.0672505,8.99807018 C96.0672505,7.99715789 96.971054,7.15777544 97.9717277,7.15777544 C99.0048505,7.15777544 99.9088926,7.99715789 99.9088926,8.99807018 C99.9088926,9.99874386 99.0048505,10.8381263 97.9717277,10.8381263"
           id="Fill-17"
           fill="#3A3A3A"
           style="fill:#dddddd;fill-opacity:1" />
        <path
           d="M124.893739,34.5034386 C124.17103,34.5034386 123.612476,33.5359298 123.612476,32.4751298 C123.645641,30.0097123 125.977683,27.5442947 128.079956,25.8903439 C127.981655,32.506386 126.766244,34.5034386 124.893739,34.5034386 Z M123.317093,19.9609825 C123.317093,18.5878596 123.448321,14.6247719 125.58376,14.6247719 C127.653107,14.6247719 127.882876,17.1524632 127.882876,18.6506105 L127.882876,23.7685053 C127.291872,24.6107509 126.700392,25.2036632 125.58376,25.2036632 C123.711255,25.2036632 123.317093,22.5514246 123.317093,19.9609825 Z M112.345234,24.4862035 C111.556911,25.3912 110.3415,26.2026667 109.191704,26.2026667 C106.530876,26.2026667 106.366483,22.2703579 106.366483,20.5228772 C106.366483,18.7751579 106.662342,14.6557895 109.355858,14.6557895 C112.180841,14.6557895 112.345234,18.0262035 112.345234,19.7741614 L112.345234,24.4862035 Z M136.8207,25.3045895 C136.234469,25.8908211 134.769009,26.1840561 134.182778,26.1840561 C133.565767,26.1840561 132.424083,25.8908211 131.522904,25.3045895 C131.59162,24.4480281 131.628125,24.1898667 131.628125,23.2063719 L131.628125,19.0247298 C131.628125,15.2801965 129.657079,13.1268632 125.616448,13.1268632 C121.411662,13.1268632 119.572083,16.4037474 119.572083,19.9922386 C119.572083,21.3030877 119.80209,22.6449544 120.360406,23.7995228 C119.637935,24.7047579 118.192279,26.0153684 117.239802,26.0153684 C116.648321,26.0153684 116.221472,25.5470035 116.221472,24.2053754 L116.221472,19.8049404 C116.221472,19.7028211 116.214076,19.6066667 116.211451,19.5066947 C116.210735,17.2276211 116.175662,14.374007 116.175662,14.374007 C116.149416,13.692814 116.294244,13.1099228 115.521669,13.1072982 L112.889711,13.0984702 C112.533725,13.0972772 112.355255,13.2771789 112.280335,13.5355789 C111.449065,13.2681123 110.488476,13.1268632 109.388785,13.1268632 C104.625444,13.1268632 102.522932,16.4037474 102.522932,20.5541333 C102.522932,23.9553263 104.165669,28.0124211 108.304841,28.0124211 C109.914413,28.0124211 111.458132,27.1389193 112.706707,25.7965754 C113.232097,27.3569965 114.348967,28.0124211 115.663156,28.0124211 C117.601276,28.0124211 119.867942,26.7015719 121.050427,24.8603228 C121.904602,25.9216 123.251241,26.6080421 125.222286,26.670793 C123.514174,27.8251228 121.477514,30.3843088 121.477514,33.0678035 C121.477514,34.8777965 122.791227,36.2821754 124.46689,36.2821754 C127.544307,36.2821754 130.56136,33.9534737 131.417444,27.3694035 C132.333893,27.7573614 133.163971,27.8716491 133.977585,27.8716491 C135.455928,27.8716491 136.674441,27.2768281 137.837837,26.5894316 C137.848574,26.5965895 136.953121,25.1988912 136.8207,25.3045895 Z"
           id="Fill-19"
           fill="#3A3A3A"
           style="fill:#dddddd;fill-opacity:1" />
        <path
           d="M138.094829,18.9793011 C138.094829,16.5446625 139.441707,14.6409011 140.460275,14.6409011 C141.763251,14.6409011 142.252851,15.63728 142.252851,16.7925642 C142.252851,18.603273 141.248121,21.0892098 139.113398,23.2239326 C138.455826,21.9130835 138.094829,20.3834414 138.094829,18.9793011 M148.476879,17.6009291 C148.175054,22.4735467 146.232401,26.0295888 143.0333,26.0295888 C140.574563,26.0295888 140.01911,24.7958063 140.045594,24.7695607 C143.85264,21.5089011 144.634998,19.3877782 144.634998,16.6730274 C144.634998,15.336887 143.416724,12.9554554 140.230268,12.9554554 C137.371405,12.9554554 134.7101,15.920494 134.7101,20.1026133 C134.7101,22.6312589 135.728907,25.127694 137.733117,26.5323116 C139.079994,27.4685642 140.7893,27.8429221 142.464486,27.8429221 C148.969103,27.8429221 150.167335,19.4822625 150.167335,19.4822625 C150.167335,19.4822625 148.477833,17.5887607 148.476879,17.6009291"
           id="Fill-21"
           fill="#3A3A3A"
           style="fill:#dddddd;fill-opacity:1" />
        <path
           d="M152.062745,17.2751018 C152.064654,17.2746246 152.071812,17.2767719 152.073482,17.2760561 C151.223601,16.5750596 151.225033,14.8869895 151.317847,13.8531509 C151.358886,13.3950456 151.001229,13.0001684 150.541215,13.0025544 C149.949019,13.0051789 149.186465,13.0080421 148.664893,13.0068491 C148.282184,13.0058947 147.940514,13.2578526 147.843882,13.6281544 C147.576654,14.6536421 147.595265,15.9012632 147.661833,16.3543579 C147.887545,17.896407 148.703068,19.1628772 150.321707,20.2489684 C151.167531,20.8180211 154.239222,22.5416421 154.474001,24.1457263 C154.682058,25.5641825 153.621973,26.4834947 152.542563,26.5708211 C151.726563,26.6366737 150.976415,25.8886737 150.630212,25.3539789 C150.47417,25.1129965 150.148247,25.0514386 149.924682,25.2320561 C149.901061,25.2513825 149.877679,25.2704702 149.854296,25.2897965 C149.582773,25.5140772 149.492822,25.8958316 149.650773,26.2107789 C149.98457,26.8774175 150.810114,27.8971789 152.735587,27.8971789 C155.163784,27.8971789 157.620373,25.7008982 157.18231,22.7093754 C156.873328,20.6011368 154.266422,18.8302737 152.062745,17.2751018"
           id="Fill-23"
           fill="#3A3A3A"
           style="fill:#dddddd;fill-opacity:1" />
        <g
           id="Group-27"
           transform="translate(0.000000, 0.015509)">
          <mask
             id="mask-2"
             fill="white">
            <use
               xlink:href="#path-1"
               id="use1" />
          </mask>
          <g
             id="Clip-26" />
          <path
             d="M31.3331593,5.79997053 C31.3331593,11.8908618 24.701847,23.6176407 21.1560646,28.1839004 C19.6910821,25.7676337 16.8116996,23.3566161 13.7681628,20.808167 C8.90151018,16.7329389 3.86951018,12.5195635 3.51280842,7.57250386 C3.38539789,5.80688982 3.77669614,4.42231439 4.67501193,3.45695298 C5.52990316,2.53811789 6.66514526,2.21100211 7.44273123,2.21100211 C9.88142596,2.21100211 12.4988295,7.00822316 14.6022961,10.8632267 C16.36624,14.0964477 17.4948014,16.0782302 18.4229418,16.0782302 C18.8333277,16.0782302 19.3288926,15.6387354 19.3288926,15.0928267 C19.3288926,13.7313951 24.4501277,2.8368407 29.4021979,2.8368407 C29.5997558,2.8368407 31.3331593,2.92011088 31.3331593,5.79997053 M28.4664225,0.860307368 C25.0447102,0.860307368 20.8163032,4.19445474 18.3131874,8.83229333 C16.0489067,3.97971789 11.387447,0.22301614 7.57491368,0.22301614 C2.65481544,0.22301614 -4.77192982e-05,4.11261614 -4.77192982e-05,7.77220912 C-4.77192982e-05,16.8758582 11.8438821,24.2639986 18.2067733,28.2330512 C19.5400505,29.0647986 20.5929768,29.7214161 21.2574681,30.218174 L21.3483733,30.286174 L21.4452435,30.2262863 C29.7283593,25.080953 34.3096505,13.2587354 34.3096505,7.05403368 C34.3096505,3.17564772 32.1250611,0.860307368 28.4664225,0.860307368"
             id="Fill-25"
             fill="#F76C6F"
             mask="url(#mask-2)" />
        </g>
      </g>
    </g>
  </g>
</svg>
