<?xml version="1.0" encoding="UTF-8" standalone="no"?>
<svg
   width="34.30965"
   height="30.063086"
   viewBox="0 0 34.30965 30.063086"
   version="1.1"
   id="svg1"
   sodipodi:docname="fa-mariage-net.svg"
   inkscape:version="1.4.2 (ebf0e940d0, 2025-05-08)"
   xmlns:inkscape="http://www.inkscape.org/namespaces/inkscape"
   xmlns:sodipodi="http://sodipodi.sourceforge.net/DTD/sodipodi-0.dtd"
   xmlns:xlink="http://www.w3.org/1999/xlink"
   xmlns="http://www.w3.org/2000/svg"
   xmlns:svg="http://www.w3.org/2000/svg"
   xmlns:rdf="http://www.w3.org/1999/02/22-rdf-syntax-ns#"
   xmlns:cc="http://creativecommons.org/ns#"
   xmlns:dc="http://purl.org/dc/elements/1.1/">
  <sodipodi:namedview
     id="namedview1"
     pagecolor="#ffffff"
     bordercolor="#666666"
     borderopacity="1.0"
     inkscape:showpageshadow="2"
     inkscape:pageopacity="0.0"
     inkscape:pagecheckerboard="0"
     inkscape:deskcolor="#d1d1d1"
     inkscape:zoom="5.8613606"
     inkscape:cx="-10.492444"
     inkscape:cy="10.663053"
     inkscape:window-width="1920"
     inkscape:window-height="974"
     inkscape:window-x="0"
     inkscape:window-y="39"
     inkscape:window-maximized="1"
     inkscape:current-layer="Page-1" />
  <!-- Generator: Sketch 48.1 (47250) - http://www.bohemiancoding.com/sketch -->
  <title
     id="title1">gen_logoHeader</title>
  <desc
     id="desc1">Created with Sketch.</desc>
  <defs
     id="defs1">
    <polygon
       id="path-1"
       points="1.7411596e-15,0.22308772 34.30965,0.22308772 34.30965,30.286174 1.7411596e-15,30.286174 " />
  </defs>
  <g
     id="BRAND-HEADER"
     stroke="none"
     stroke-width="1"
     fill="none"
     fill-rule="evenodd"
     transform="translate(0,-0.23859672)">
    <g
       id="gen_logoHeader">
      <g
         id="Page-1">
        <g
           id="Group-27"
           transform="translate(0,0.015509)">
          <mask
             id="mask-2"
             fill="#ffffff">
            <use
               xlink:href="#path-1"
               id="use1" />
          </mask>
          <g
             id="Clip-26" />
          <path
             d="m 31.333159,5.7999705 c 0,6.0908915 -6.631312,17.8176705 -10.177094,22.3839295 C 19.691082,25.767634 16.8117,23.356616 13.768163,20.808167 8.9015102,16.732939 3.8695102,12.519564 3.5128084,7.5725039 3.3853979,5.8068898 3.7766961,4.4223144 4.6750119,3.456953 5.5299032,2.5381179 6.6651453,2.2110021 7.4427312,2.2110021 c 2.4386948,0 5.0560978,4.7972211 7.1595648,8.6522249 1.763944,3.233221 2.892505,5.215003 3.820646,5.215003 0.410386,0 0.905951,-0.439495 0.905951,-0.985403 0,-1.361432 5.121235,-12.2559863 10.073305,-12.2559863 0.197558,0 1.930961,0.08327 1.930961,2.9631298 M 28.466422,0.86030737 c -3.421712,0 -7.650119,3.33414733 -10.153235,7.97198593 -2.26428,-4.8525754 -6.92574,-8.60927716 -10.7382733,-8.60927716 -4.9200983,0 -7.574961419298,3.88959996 -7.574961419298,7.54919296 0,9.1036489 11.843929719298,16.4917899 18.206820719298,20.4608419 1.333277,0.831748 2.386204,1.488365 3.050695,1.985123 l 0.0909,0.068 0.09687,-0.05989 C 29.728359,25.080953 34.30965,13.258735 34.30965,7.0540337 c 0,-3.878386 -2.184589,-6.19372633 -5.843228,-6.19372633"
             id="Fill-25"
             fill="#F76C6F"
             mask="url(#mask-2)"
             style="fill:#dddddd;fill-opacity:1" />
        </g>
      </g>
    </g>
  </g>
  <metadata
     id="metadata1">
    <rdf:RDF>
      <cc:Work
         rdf:about="">
        <dc:title>gen_logoHeader</dc:title>
      </cc:Work>
    </rdf:RDF>
  </metadata>
</svg>
